<svg viewBox="0 0 218.9 55.8" xmlns="http://www.w3.org/2000/svg">
  <path fill="#0057B8" d="M153,22.2h-28.6v12.5H140c-3.7,7.5-12.8,10.6-20.4,6.9c-7.5-3.7-10.6-12.8-6.9-20.4
    c2.5-5.2,7.8-8.5,13.6-8.5c4.6-0.1,8.9,2.2,11.4,6h13.6C149.2,9.2,138.5,0,126.4,0c-11.8,0-23.3,7.7-25.7,19.1v0V2
    c-14.4,0-24,16.2-26.2,25.8h0C72.2,18.2,62.7,2,48.3,2v51.5h12.5V23.8c0,0,7.2,6.4,7.2,29.6h12.9c0-23.2,7.2-29.6,7.2-29.6v29.6
    h12.5V35.5c3,13,13.3,20.3,25.7,20.3c12.5,0,23.6-7.1,26.7-21v18.6c0,0,25.9,0,25.5,0V41.2h-13.3v-6.5h13.3V22.2h-13.3
    c0,0,0-6.9,0-6.9h13.3V2.7H153L153,22.2z M206,24.1C195.1,8.5,184.5,2.8,181.6,2.8v50.7h13.3v-24c0,0,9.2,10,11.1,24h13V2.7h-13V24.1
    z M23.6,8.2c-7.2,5.4-11.6,13.4-15,20.7C5.1,36.2,1.7,47.1,0,53.5h13c0.9-3.6,3.1-11.4,3.5-12.8h16.3v12.8h12.6V1.9
    C33.4,0.7,27,5.7,23.6,8.2L23.6,8.2z M32.7,28.9h-11c2.6-4,6.9-9.2,11-12L32.7,28.9z" />
</svg>
