<svg width="37" height="42" viewBox="0 0 37 42" fill="none" xmlns="http://www.w3.org/2000/svg">
<g clip-path="url(#clip0_62_5367)">
<path d="M24.9719 21.1649C22.1037 21.1649 19.2354 21.1665 16.3678 21.1621C16.0645 21.1621 15.7574 21.1515 15.4591 21.1013C14.0335 20.8628 13.8094 19.1847 14.4259 18.3788C14.8692 17.7997 15.422 17.5628 16.1464 17.5723C18.6732 17.6057 21.2 17.6152 23.7268 17.6152C26.8069 17.6152 29.8871 17.5963 32.9673 17.5857C33.3907 17.584 33.8179 17.545 34.2368 17.5862C34.9319 17.6548 35.4913 17.9914 35.7675 18.6586C36.048 19.3368 35.9523 19.9844 35.4603 20.5552C35.1715 20.8901 34.7996 21.074 34.3757 21.0974C33.8157 21.1281 33.2523 21.1025 32.6901 21.1025C30.1168 21.1025 27.5441 21.1025 24.9708 21.1025C24.9708 21.1231 24.9708 21.1437 24.9708 21.1649H24.9719ZM18.5857 18.9132C18.2426 18.9149 18.0788 19.0788 18.0794 19.4188C18.0799 19.7047 18.2653 19.8613 18.594 19.8524C18.889 19.8446 19.1148 19.6434 19.1142 19.3892C19.1137 19.1267 18.8746 18.9121 18.5857 18.9132ZM16.8713 19.4087C16.8713 19.032 16.7391 18.862 16.4497 18.8648C16.1309 18.8681 15.9112 19.0699 15.9079 19.3625C15.9046 19.6361 16.1315 19.8635 16.4148 19.8696C16.6998 19.8763 16.8713 19.703 16.8713 19.4087Z" fill="#0575E6"/>
<path d="M16.0036 25.7119C16.821 26.082 17.6123 26.408 18.3744 26.7926C20.3068 27.7679 22.0721 29.0158 23.8601 30.2291C24.8507 30.9012 25.8883 31.5048 26.9143 32.1235C27.6171 32.547 28.3349 32.945 29.0493 33.3485C29.2037 33.4354 29.2386 33.5385 29.1522 33.6879C29.0692 33.8317 29.0017 33.9894 28.8966 34.1148C28.3083 34.8148 27.7245 35.5199 27.1091 36.1959C26.8385 36.4935 26.5087 36.7426 26.1811 36.979C26.0687 37.0603 25.8679 37.0871 25.7295 37.0514C24.7168 36.7878 23.8629 36.2148 23.0738 35.5555C21.5082 34.2486 20.1535 32.7237 18.7579 31.2418C17.6793 30.0959 16.6085 28.9417 15.3661 27.9697C15.1603 27.8086 15.1248 27.6737 15.2715 27.4469C15.603 26.9347 15.9007 26.4019 16.0025 25.7119H16.0036Z" fill="#0575E6"/>
<path d="M16.359 23.2441C16.893 23.3027 17.3982 23.2982 17.8703 23.4214C19.2222 23.7747 20.5719 24.1459 21.9028 24.5728C24.1197 25.2845 26.32 26.0509 28.5303 26.7838C29.5264 27.1143 30.5313 27.4191 31.5308 27.7385C31.7145 27.797 31.8949 27.8672 32.0747 27.938C32.4001 28.0662 32.4588 28.21 32.2933 28.5277C31.7267 29.6189 31.1633 30.7124 30.5778 31.7936C30.4251 32.0756 30.2093 32.3264 29.9984 32.57C29.9469 32.6296 29.7793 32.6497 29.7001 32.6129C28.0173 31.8243 26.4235 30.8768 24.8956 29.8184C22.8071 28.3716 20.7296 26.9069 18.4646 25.746C17.7878 25.3988 17.1177 25.0098 16.3584 24.9362V23.2441H16.359Z" fill="#0575E6"/>
<path d="M14.5348 28.3936C15.3068 29.127 16.107 29.8409 16.8546 30.6078C18.0488 31.8334 19.2032 33.0986 20.383 34.3381C21.5225 35.5347 22.7538 36.6215 24.1954 37.4424C24.4732 37.6007 24.7737 37.7188 25.1123 37.8788C24.9507 38.0254 24.8047 38.1541 24.663 38.2868C23.803 39.0927 22.8152 39.6963 21.7378 40.1544C20.8783 40.52 20.098 40.2163 19.3869 39.7698C18.4589 39.1869 17.7345 38.3592 17.1579 37.4385C16.1706 35.8624 15.2282 34.2567 14.3162 32.6354C13.8458 31.7989 13.4839 30.9004 13.0666 30.0332C12.9621 29.8153 12.9659 29.6838 13.2122 29.5489C13.5249 29.3778 13.811 29.1493 14.0871 28.9197C14.2443 28.7887 14.3577 28.6053 14.5348 28.3936Z" fill="#0575E6"/>
<path d="M12.1166 30.2432C12.1625 30.3663 12.2157 30.5235 12.2798 30.6762C13.4818 33.5353 14.9793 36.2239 16.8918 38.6639C17.5155 39.4598 18.2465 40.1603 19.1303 40.672C19.3671 40.8091 19.6267 40.9061 19.936 41.0493C19.4878 41.2187 19.0976 41.4194 18.6837 41.5108C17.8774 41.6885 17.0623 41.8507 16.2421 41.9354C15.0529 42.0586 14.0944 41.5464 13.3014 40.6803C12.5455 39.8549 12.0369 38.879 11.6263 37.8496C10.7431 35.6354 10.3529 33.3235 10.3247 30.9443C10.3236 30.8612 10.3247 30.7782 10.3247 30.7214C10.9251 30.5614 11.5045 30.407 12.1166 30.2443V30.2432Z" fill="#0575E6"/>
<path d="M33.9911 22.0957C33.8644 22.7935 33.7637 23.5091 33.5999 24.2102C33.4211 24.9766 33.2042 25.7351 32.9673 26.4858C32.7792 27.0833 32.6807 27.1217 32.0814 26.9228C30.4129 26.3693 28.7472 25.807 27.0815 25.2452C25.6244 24.7536 24.1734 24.2425 22.7102 23.7699C21.7905 23.4729 20.8641 23.1808 19.9211 22.9785C18.8514 22.7489 17.7612 22.6129 16.6771 22.4557C16.4569 22.424 16.3783 22.3582 16.4519 22.0957H33.9906H33.9911Z" fill="#0575E6"/>
<path d="M9.3911 30.7307C9.32248 32.0388 9.43206 33.3519 9.67555 34.6477C10.0618 36.7059 10.7026 38.6761 11.9284 40.3982C12.2898 40.9059 12.7651 41.3312 13.1918 41.791C13.2339 41.8367 13.3003 41.8601 13.3551 41.8941C13.3412 41.9275 13.3279 41.9615 13.3141 41.9955C13.0927 41.9955 12.8714 42.0067 12.6511 41.9939C11.6124 41.9314 10.6152 41.6918 9.64622 41.3078C8.25112 40.7543 7.44759 39.6715 6.97167 38.3015C6.348 36.508 6.46255 34.6861 6.81119 32.8597C6.96559 32.0527 7.32529 31.3354 7.76358 30.6555C7.81228 30.5797 7.96003 30.5189 8.053 30.5295C8.48908 30.5797 8.92183 30.6577 9.3911 30.7307Z" fill="#0575E6"/>
<path d="M4.82119 23.8314C3.79243 23.0037 2.63363 22.8599 1.32983 23.1431C1.4228 22.943 1.47206 22.7975 1.55174 22.6721C2.52793 21.1339 3.87101 20.0688 5.62029 19.57C7.34632 19.0779 9.70875 19.91 10.4658 21.7386C10.8227 22.6013 10.8664 23.4663 10.359 24.3006C10.1587 24.6295 9.99485 24.9862 9.75911 25.2866C9.19243 26.0083 8.44812 26.3371 7.53668 26.1098C6.5273 25.8584 6.02869 24.8987 6.40832 23.9869C6.46421 23.8531 6.54611 23.7205 6.64627 23.6174C6.85601 23.4011 7.08069 23.4507 7.20686 23.7249C7.29983 23.9267 7.37841 24.1357 7.47692 24.3346C7.6208 24.625 7.92018 24.6534 8.12549 24.4049C8.46915 23.9891 8.52061 23.2094 8.2334 22.7808C7.95892 22.3712 7.21738 22.1226 6.72264 22.2725C6.14988 22.4458 5.67784 22.7658 5.30873 23.2423C5.15599 23.4396 4.99108 23.6263 4.82119 23.8308V23.8314Z" fill="#0575E6"/>
<path d="M6.63928 39.8052C4.90606 39.0021 3.61499 37.8244 2.71407 36.2299C2.54695 35.934 2.44457 35.5711 2.4169 35.2306C2.23926 33.0709 2.94705 31.2345 4.50762 29.747C4.76716 29.4996 5.12188 29.3524 5.43842 29.1691C5.59226 29.0799 5.70737 29.13 5.84682 29.2588C6.18993 29.5748 6.56457 29.8557 6.94365 30.1639C5.93924 31.5561 5.66974 33.2047 5.56736 34.8867C5.46332 36.5916 5.7699 38.2263 6.63984 39.8052H6.63928Z" fill="#0575E6"/>
<path d="M5.01253 28.3853C4.18576 28.6423 3.50121 29.2124 2.98047 29.9615C2.62907 30.467 2.31529 31.0115 2.07125 31.5772C1.71929 32.3931 1.43706 33.2414 1.43263 34.1521C1.43263 34.195 1.42101 34.2384 1.40496 34.351C1.31919 34.2368 1.25555 34.1755 1.21958 34.1002C0.638515 32.8869 0.232878 31.6229 0.139355 30.2691C0.109472 29.8355 0.226791 29.4543 0.454235 29.0837C0.916871 28.3302 1.45809 27.6647 2.23837 27.2227C2.86758 26.866 3.5322 26.7696 4.23889 26.8978C4.43423 26.9335 4.51724 27.031 4.57645 27.2239C4.69377 27.6067 4.85536 27.9757 5.01197 28.3853H5.01253Z" fill="#0575E6"/>
<path d="M4.36793 26.0351C3.524 25.8663 2.69668 25.9058 1.90865 26.3272C1.14054 26.7379 0.602646 27.3922 0.0387396 28.1179C0.0182641 27.9858 -0.00276478 27.9195 2.17653e-06 27.8543C0.0503609 26.6788 0.260097 25.5346 0.69451 24.4389C0.73048 24.3481 0.82345 24.2572 0.912546 24.2143C2.05198 23.6676 3.15544 23.7439 4.2163 24.4317C4.33196 24.5064 4.44374 24.5877 4.54225 24.6552C4.48414 25.1144 4.42769 25.5608 4.36793 26.0346V26.0351Z" fill="#0575E6"/>
<path d="M18.5857 18.9131C18.8746 18.9114 19.1131 19.1266 19.1142 19.3891C19.1147 19.6432 18.889 19.8444 18.594 19.8522C18.2658 19.8611 18.0799 19.7051 18.0793 19.4186C18.0788 19.0792 18.2426 18.9153 18.5857 18.9131Z" fill="white"/>
<path d="M16.8712 19.4092C16.8712 19.7035 16.6997 19.8768 16.4147 19.8702C16.1308 19.8635 15.9039 19.6366 15.9078 19.363C15.9116 19.0709 16.1313 18.8692 16.4495 18.8653C16.7395 18.8619 16.8712 19.0325 16.8712 19.4092Z" fill="white"/>
</g>
<g clip-path="url(#clip1_62_5367)">
<path d="M19.3418 11.7123C19.2572 11.7509 19.1613 11.7565 19.0728 11.7282C18.9842 11.6999 18.9094 11.6396 18.8629 11.5592C18.8164 11.4787 18.8015 11.3838 18.8211 11.293C18.8407 11.2021 18.8934 11.1218 18.969 11.0677C20.4578 10.0006 20.7199 8.92575 20.0479 6.64441C20.0334 6.59712 20.0284 6.54743 20.0333 6.49821C20.0381 6.44899 20.0527 6.40122 20.0761 6.35767C20.0996 6.31411 20.1314 6.27564 20.1698 6.24447C20.2082 6.2133 20.2524 6.19005 20.2998 6.17608C20.3473 6.1621 20.397 6.15767 20.4462 6.16304C20.4953 6.16842 20.543 6.18349 20.5863 6.20738C20.6296 6.23127 20.6677 6.26352 20.6985 6.30224C20.7292 6.34097 20.752 6.38541 20.7655 6.433C21.5222 9.0013 21.1531 10.4222 19.4048 11.6757C19.385 11.6899 19.3639 11.7022 19.3418 11.7123Z" fill="#0575E6"/>
<path d="M24.8777 8.88767L24.8786 8.88746C24.885 8.88598 24.8912 8.88387 24.8971 8.88117L24.8777 8.88767ZM24.8777 8.88767C23.8716 9.12673 23.0894 9.08141 22.393 8.73502C21.6873 8.38395 21.0309 7.70482 20.3204 6.59335L20.3204 6.59334M24.8777 8.88767L20.3204 6.59334M20.3204 6.59334L20.3188 6.59092M20.3204 6.59334L20.3188 6.59092M20.3188 6.59092C20.3114 6.5796 20.3063 6.56692 20.3039 6.55363C20.3014 6.54033 20.3016 6.52667 20.3044 6.51345C20.3072 6.50022 20.3127 6.48769 20.3204 6.47658C20.3281 6.46547 20.3379 6.456 20.3493 6.44871C20.3607 6.44143 20.3735 6.43648 20.3868 6.43414C20.4001 6.43181 20.4138 6.43214 20.4269 6.43511C20.4401 6.43809 20.4526 6.44366 20.4636 6.45148C20.4747 6.45931 20.484 6.46925 20.4912 6.48072L20.4912 6.48073M20.3188 6.59092L20.4912 6.48073M20.4912 6.48073L20.4927 6.48315M20.4912 6.48073L20.4927 6.48315M20.4927 6.48315C21.1398 7.49542 21.7378 8.17398 22.4323 8.53222C23.14 8.89726 23.9046 8.90862 24.8308 8.68858L24.8311 8.68852M20.4927 6.48315L24.8311 8.68852M24.8311 8.68852C24.8558 8.68262 24.8818 8.68614 24.9041 8.69839M24.8311 8.68852L24.9041 8.69839M23.8361 13.9365L23.6903 13.7071C23.6859 13.7099 23.6813 13.7124 23.6766 13.7146C23.6544 13.7246 23.6292 13.7262 23.6058 13.7193C23.5822 13.7123 23.5619 13.6971 23.5487 13.6763L23.5487 13.6763C22.9016 12.6642 22.3036 11.9856 21.609 11.6273C20.9013 11.2622 20.1366 11.2507 19.2103 11.4708L19.2102 11.4708L19.206 11.4718C19.1929 11.4752 19.1792 11.4759 19.1658 11.4739L19.1259 11.742L19.1658 11.4739C19.1524 11.4719 19.1395 11.4672 19.1278 11.4602C19.1162 11.4532 19.1061 11.4439 19.0981 11.4329C19.0901 11.422 19.0844 11.4095 19.0813 11.3963C19.0781 11.3831 19.0777 11.3694 19.0799 11.356C19.0821 11.3426 19.0869 11.3298 19.0942 11.3183C19.1014 11.3068 19.1108 11.2969 19.1219 11.2891C19.133 11.2812 19.1455 11.2757 19.1588 11.2728L19.1588 11.2728L19.1631 11.2718C20.1694 11.0328 20.9517 11.0781 21.6481 11.4246C22.3539 11.7756 23.0103 12.4548 23.7208 13.5662C23.7354 13.5891 23.7403 13.6168 23.7345 13.6433C23.7287 13.6698 23.7126 13.6929 23.6897 13.7075L23.8361 13.9365ZM23.8361 13.9365C23.8212 13.946 23.8056 13.9544 23.7895 13.9618L23.9498 13.4199C24.0032 13.5035 24.0212 13.6048 23.9999 13.7017C23.9786 13.7986 23.9197 13.8831 23.8361 13.9365ZM24.9041 8.69839C24.9264 8.71064 24.9433 8.73074 24.9515 8.75478M24.9041 8.69839L24.9515 8.75478M24.9515 8.75478C24.9598 8.77881 24.9588 8.80507 24.9488 8.82842M24.9515 8.75478L24.9488 8.82842M24.9488 8.82842C24.9388 8.85175 24.9204 8.87051 24.8973 8.88106L24.9488 8.82842ZM24.8973 8.8811L24.8972 8.88114L24.8973 8.8811Z" stroke="#0575E6" stroke-width="0.543529"/>
<path d="M23.7905 13.9619C23.7744 13.9692 23.7577 13.9754 23.7407 13.9805C23.6935 13.9944 23.6441 13.9988 23.5952 13.9936C23.5464 13.9884 23.499 13.9736 23.4559 13.9501C23.4127 13.9266 23.3746 13.8948 23.3438 13.8565C23.3129 13.8183 23.2899 13.7743 23.2761 13.7272C22.5193 11.1589 22.8883 9.73826 24.6364 8.48438C24.6763 8.4548 24.7216 8.43346 24.7698 8.42158C24.818 8.4097 24.8681 8.40753 24.9171 8.4152C24.9661 8.42286 25.0131 8.44021 25.0554 8.46623C25.0977 8.49225 25.1343 8.52642 25.1633 8.56675C25.1922 8.60708 25.2128 8.65276 25.2239 8.70113C25.235 8.74951 25.2364 8.79961 25.2279 8.84851C25.2194 8.89742 25.2013 8.94415 25.1746 8.98599C25.1479 9.02783 25.1132 9.06394 25.0724 9.09221C23.5839 10.1598 23.3217 11.2346 23.9936 13.5158C24.0192 13.6021 24.0127 13.6948 23.9753 13.7767C23.938 13.8587 23.8724 13.9244 23.7905 13.9619ZM26.7737 13.2169C26.6892 13.2551 26.5935 13.2605 26.5052 13.2321C26.4169 13.2037 26.3424 13.1435 26.296 13.0632C26.2495 12.983 26.2346 12.8883 26.254 12.7976C26.2734 12.707 26.3258 12.6268 26.401 12.5725C27.5239 11.7675 27.7205 10.9525 27.2098 9.21918C27.183 9.12439 27.1946 9.02283 27.2422 8.93657C27.2898 8.85031 27.3695 8.78632 27.464 8.75847C27.5585 8.73063 27.6602 8.7412 27.7469 8.78787C27.8337 8.83455 27.8985 8.91357 27.9274 9.00777C28.5286 11.0484 28.233 12.1796 26.837 13.1804C26.8172 13.1946 26.7959 13.2068 26.7737 13.2169Z" fill="#0575E6"/>
<path d="M31.187 11.2049C31.1648 11.2151 31.1416 11.2231 31.1178 11.2288C29.4468 11.6259 28.3992 11.1072 27.2532 9.31453C27.2011 9.23096 27.184 9.13018 27.2056 9.03408C27.2273 8.93798 27.286 8.85431 27.369 8.80124C27.4521 8.74818 27.5526 8.73001 27.649 8.75067C27.7453 8.77133 27.8296 8.82916 27.8835 8.9116C28.857 10.434 29.601 10.82 30.945 10.5007C31.0354 10.4792 31.1306 10.492 31.212 10.5368C31.2934 10.5816 31.3553 10.6551 31.3855 10.743C31.4157 10.8309 31.4121 10.9269 31.3754 11.0123C31.3387 11.0977 31.2715 11.1663 31.187 11.2049ZM30.2368 14.9683C30.1548 15.0056 30.0621 15.012 29.9757 14.9865C29.8894 14.9609 29.8151 14.905 29.7666 14.8291C28.7933 13.3069 28.0494 12.9205 26.7052 13.2399C26.6571 13.2522 26.6071 13.2547 26.558 13.2474C26.5089 13.2401 26.4617 13.2231 26.4193 13.1974C26.3768 13.1717 26.3399 13.1379 26.3106 13.0977C26.2814 13.0576 26.2605 13.0121 26.249 12.9638C26.2375 12.9155 26.2358 12.8654 26.2439 12.8165C26.252 12.7675 26.2697 12.7206 26.2961 12.6786C26.3225 12.6366 26.357 12.6002 26.3975 12.5716C26.4381 12.543 26.484 12.5228 26.5324 12.5121C28.204 12.1148 29.2517 12.6337 30.3975 14.4262C30.424 14.4676 30.442 14.5138 30.4506 14.5622C30.4592 14.6106 30.4581 14.6602 30.4475 14.7082C30.4369 14.7562 30.417 14.8017 30.3888 14.8419C30.3606 14.8822 30.3248 14.9165 30.2834 14.943C30.2684 14.9525 30.2529 14.9609 30.2368 14.9683Z" fill="#0575E6"/>
<path d="M30.2379 14.9681C30.2217 14.9754 30.205 14.9817 30.188 14.9867C30.1409 15.0006 30.0915 15.0051 30.0426 14.9999C29.9937 14.9948 29.9464 14.98 29.9032 14.9565C29.8601 14.933 29.822 14.9012 29.7911 14.863C29.7602 14.8248 29.7372 14.7809 29.7233 14.7337C29.1219 12.6929 29.4177 11.5619 30.8136 10.5611C30.8943 10.5052 30.9937 10.4833 31.0905 10.5C31.1872 10.5167 31.2735 10.5708 31.3307 10.6506C31.3879 10.7303 31.4114 10.8294 31.3963 10.9264C31.3811 11.0233 31.3284 11.1105 31.2496 11.169C30.1268 11.974 29.9304 12.7889 30.441 14.522C30.4665 14.6083 30.46 14.701 30.4227 14.7829C30.3854 14.8649 30.3198 14.9306 30.2379 14.9681ZM26.37 6.65672C26.2854 6.69531 26.1895 6.70102 26.1009 6.67274C26.0124 6.64446 25.9375 6.58422 25.891 6.50375C25.8444 6.42329 25.8295 6.32837 25.8491 6.2375C25.8687 6.14663 25.9214 6.06632 25.997 6.01222C26.7027 5.50643 26.8184 5.01411 26.4915 3.9049C26.477 3.85761 26.4721 3.80792 26.4769 3.7587C26.4818 3.70948 26.4963 3.66171 26.5198 3.61816C26.5432 3.5746 26.575 3.53613 26.6134 3.50496C26.6518 3.47379 26.696 3.45054 26.7435 3.43657C26.7909 3.42259 26.8407 3.41816 26.8898 3.42353C26.939 3.42891 26.9866 3.44398 27.0299 3.46787C27.0732 3.49176 27.1113 3.52401 27.1421 3.56273C27.1729 3.60146 27.1956 3.6459 27.2091 3.69349C27.5554 4.86812 27.5559 5.81559 26.4331 6.62027C26.4133 6.63446 26.3922 6.64666 26.37 6.65672Z" fill="#0575E6"/>
<path d="M29.3224 5.31053C29.3002 5.32072 29.277 5.32871 29.2533 5.33437C27.9098 5.65348 27.1951 5.03181 26.5351 3.99989C26.5076 3.95849 26.4887 3.91204 26.4794 3.86325C26.4701 3.81447 26.4706 3.76431 26.4809 3.71572C26.4912 3.66713 26.511 3.62107 26.5393 3.58024C26.5676 3.53941 26.6037 3.50461 26.6456 3.47789C26.6874 3.45116 26.7342 3.43305 26.7832 3.42459C26.8321 3.41613 26.8822 3.41751 26.9306 3.42863C26.979 3.43976 27.0247 3.46041 27.0651 3.48939C27.1054 3.51837 27.1396 3.55509 27.1656 3.59741C27.7885 4.57142 28.236 4.80705 29.0806 4.60624C29.171 4.58468 29.2663 4.59755 29.3477 4.64236C29.4292 4.68717 29.491 4.76071 29.5212 4.84863C29.5514 4.93656 29.5477 5.03257 29.511 5.11797C29.4742 5.20336 29.407 5.272 29.3224 5.31053ZM28.6864 7.82822C28.6044 7.86544 28.5117 7.87184 28.4254 7.84624C28.3391 7.82065 28.2649 7.76477 28.2164 7.68887C27.5938 6.71476 27.1461 6.47868 26.3015 6.67971C26.205 6.70264 26.1033 6.68627 26.0188 6.63421C25.9343 6.58216 25.874 6.49868 25.8511 6.40213C25.8282 6.30559 25.8445 6.2039 25.8966 6.11942C25.9486 6.03494 26.0321 5.97461 26.1287 5.95168C27.4726 5.63238 28.1872 6.25437 28.8471 7.28607C28.8735 7.32747 28.8916 7.37369 28.9002 7.42206C28.9088 7.47044 28.9077 7.52004 28.8972 7.56803C28.8866 7.61601 28.8667 7.66144 28.8385 7.70172C28.8104 7.742 28.7746 7.77635 28.7332 7.80279C28.7182 7.81231 28.7025 7.82081 28.6864 7.82822Z" fill="#0575E6"/>
<path d="M28.6872 7.82823C28.671 7.83556 28.6543 7.84178 28.6373 7.84686C28.5421 7.87489 28.4397 7.86397 28.3526 7.81651C28.2655 7.76904 28.2008 7.68892 28.1728 7.59377C27.827 6.41893 27.8265 5.47146 28.9489 4.66666C28.9888 4.63708 29.0341 4.61573 29.0823 4.60385C29.1305 4.59198 29.1806 4.58981 29.2296 4.59747C29.2786 4.60514 29.3256 4.62249 29.3679 4.64851C29.4102 4.67453 29.4468 4.70869 29.4758 4.74902C29.5047 4.78935 29.5253 4.83504 29.5364 4.88341C29.5475 4.93179 29.5489 4.98189 29.5404 5.03079C29.5319 5.0797 29.5138 5.12643 29.4871 5.16827C29.4604 5.21011 29.4257 5.24621 29.3849 5.27449C28.6792 5.78027 28.564 6.27294 28.8903 7.38213C28.9158 7.46848 28.9093 7.56114 28.872 7.64308C28.8347 7.72503 28.769 7.79077 28.6872 7.82823Z" fill="#0575E6"/>
<path d="M20.6989 9.6544L20.7665 7.77732L22.2445 8.48838L24.2958 8.93815L24.0878 9.49452L23.4807 10.6943L23.1181 12.9367L22.1262 11.7733L20.4571 11.1493L19.7097 11.0284L20.6989 9.6544Z" fill="#0575E6"/>
<path d="M26.7603 5.73733L27.2634 4.81569L28.6712 4.86639L28.7414 5.52674L28.2214 6.91765L27.2998 6.41458L27.0216 6.31059L26.7603 5.73733Z" fill="#0575E6"/>
<path d="M27.7915 11.0377L28.0164 10.0121L29.7726 10.8271L30.4161 11.2262L30.1041 12.0607L29.7921 12.8953L29.4801 13.7298L28.3843 12.8446L27.1676 12.7068L27.5666 12.0633L27.7915 11.0377Z" fill="#0575E6"/>
</g>
<defs>
<clipPath id="clip0_62_5367">
<rect width="36.96" height="37.8" fill="white" transform="translate(0 4.2002)"/>
</clipPath>
<clipPath id="clip1_62_5367">
<rect width="15.96" height="15.96" fill="white" transform="translate(14.7 6.61914) rotate(-24.5025)"/>
</clipPath>
</defs>
</svg>
